<?xml version="1.0" encoding="UTF-8"?>
<svg id="Layer_2" data-name="Layer 2" xmlns="http://www.w3.org/2000/svg" viewBox="0 0 978 978.2">
  <defs>
    <style>
      .cls-1 {
        fill: #fff;
        stroke: #000;
        stroke-miterlimit: 10;
      }
    </style>
  </defs>
  <g id="Layer_1-2" data-name="Layer 1">
    <path d="M218,910.2v21l4.95-6.54c4.33-3.33,19.81-3.1,25.6-2.51,5.29.53,6.94,4.24,8.44,9.06h-28.5c-3.61,0-4,14,2,14h27.5v8h-31.5c-2.88,0-7.6-5.99-8-9.01l-.49,9.02h-9.01v-43.01h9Z"/>
    <path d="M586,353.2v5h-44.5c-2.97,0-2.77,3.73-2.5,6h47v5h-47c-.26,1.43-.03,6,1.5,6h45.5v5h-55.5c-.24,0-3.98-2.03-4.22-2.27-4.29-4.32-3.94-24.73,5.22-24.73h54.5Z"/>
    <path d="M560,910.2v32.5c0,3.03-5.39,9.54-8.71,10.29-4.4.99-24.79.82-29.81.23-13.32-1.56-15.05-29.07,2.02-31.02,9.41-1.08,15.78-1.16,18.5,9h-17.5c-2.98,0-5.94,11.46.44,13.56,3.01.99,21.95.99,23.81-.82.17-.17,2.25-4,2.25-4.24v-29.5h9Z"/>
    <path d="M434,358.7c.77-3.62,5.25-5.13,8.5-5.5,9.75-1.11,31.06-.89,41.03-.04,4.54.39,11.25,1.54,12.29,6.78,1.89,9.49-6.78,10.54-13.82,10.76l12.99,9.51h-16.5c-1.06,0-15.45-10.51-16.5-13h15.5c2.9,0,5.39-5.47,1.92-7.93-1.98-1.4-23.63-1.69-26.9-1.05-2.13.42-4.52,3.7-4.52,5.48v16.5h-14c.9-6.23-1.22-15.74,0-21.5Z"/>
    <path d="M391.5,953.2c-10.92-2.37-12.91-28.62,2.06-30.94,4.86-.75,23.77-.84,27.13,2.24,4.86,4.46,8.22,18.5,15.05,20.48,1.2.35,4.07.04,4.26.22.35.33-.24,6.52,0,8-4.8.14-9.73.57-13.43-3.08-3.12-3.08-9.05-17.21-11.57-18.43-1.69-.82-17.27-.91-19.31-.3-4.86,1.45-5.83,12.53,1.87,13.74,8.91,1.4,15.05-4.01,18.44,8.06-7.02-1.03-18.03,1.4-24.5,0Z"/>
    <path d="M489,942.2v-18.5c0-2.18,10-2.18,10,0v17c0,1.15-2.93,8.89-3.97,10.03-11.03,12.15-25.67-16.42-32.69-17.43-1.42-.21-3.34,2.79-3.34,3.4v16.5h-9v-19.5c0-1.54,3.05-8.28,4.48-9.52,11.32-9.87,23.81,18.05,34.52,18.02Z"/>
    <path d="M672.5,953.2c-10.77-2.33-13.5-29.12,3-31,3.19-.36,20.53-.63,22.79-.02.86.24,4.79,7.29,4.71,9.02h-28.5c-3.03,0-4.34,14,2,14h27.5v8c-8.95-1.33-23.25,1.79-31.5,0Z"/>
    <path d="M677.99,353.2c.38,1.67-.53,2.03-1.51,2.98-1.59,1.55-11.43,8.85-11.55,9.59-.54,3.34,11.54,10.33,13.07,14.42-4.36-.42-9.91.84-14.05-.44-5.55-1.71-6.67-9.77-15.4-10.6-14.72-1.4-11.39,3.05-20.05,9.05-5.04,3.49-10.67,1.56-16.5,1.99l13.98-13.49-13.98-13.49c6.41.11,11.33-1.18,16.93,2.56,8.49,5.67,5.31,9.9,19.62,8.48,9.84-.98,11.57-9.48,16.15-10.84,3.59-1.07,9.38.33,13.29-.2Z"/>
    <path d="M761,353.2v5h-24v22h-15v-20.5c0-.11-1.39-1.5-1.5-1.5h-22c-1.88,0-1.88-5,0-5h62.5Z"/>
    <path d="M23,338.2c-8-.73-10.41,8.02-15.49,12.01.06-3.59.82-10.72,2.19-13.79.57-1.29.26-1.12,1.76-1.28,3.76-.41,30.75-.53,32.91.2s3.13,12.01,3.63,14.86c-4.51-1.06-3.94-6.58-8.04-9.45-2.13-1.49-5.34-2.46-7.96-2.54v39c0,.29,4.95-.25,4,3h-17c-.95-3.25,4-2.71,4-3v-39Z"/>
    <path d="M139.5,335.2c.81.23,2.05,2.43,1.5,2.99-.15.15-2.72-.17-3.59.93-1.83,2.33,7.25,24.14,9.09,28.07,1.55-6.4,8.25-19.77,8.48-25.6.19-4.81-5.16-2.34-3.98-4.88,1.09-2.33,11.92-2.34,12.98,0,.86,1.9-2.88,1.33-4.45,3.53-4.84,6.79-9.74,29.41-14.1,38.94-1.59,3.47-2.91,2.88-4.51-.42-5.05-10.4-7.4-27.66-12.72-37.28-1.78-3.22-4.94-2.58-4.21-6.29,4.16.75,11.92-1.03,15.5,0Z"/>
    <path d="M373,931.2h-30.5c-.79,0-3.5,4.7-3.5,5.5v16.5h-10v-16.5c0-6.07,5.26-13.51,11.59-14.41,3.28-.47,24.53-.67,26.75.07,1.73.57,4.28,7.07,5.66,8.84Z"/>
    <path d="M276.5,335.2c.84.24,1.82,1.92,1.5,3-2.67-.02-4.43-.44-5,2.5s-.48,31.47.2,33.8c1.2,4.08,8.26,2.92,11.37,1.78l10.42-10.07c-.19,4.55-1.04,10.23-3.49,14h-30.5c-.6-3.94.59-3.03,4.01-2.99-1.07-5.83,1.58-35.25-.45-38.08-1.15-1.61-4.73.53-3.56-3.92,4.16.75,11.92-1.03,15.5,0Z"/>
    <path d="M341.5,335.2c.84.24,1.82,1.92,1.5,3-2.67-.02-4.43-.44-5,2.5-.74,3.78-.75,32.05-.06,35.94.2,1.13,5.92-.17,5.06,3.56h-16.5c-.44,0-2.19-1.64-.52-2.52,1.29-.67,3.89,0,4.08-1.04.68-3.84.69-32.28-.04-35.96-.63-3.19-3.28-1.95-4.54-3.47-.97-.56.9-2.01,1.02-2.01,3.44,0,12.55-.7,15,0Z"/>
    <path d="M93.5,335.2c.84.24,1.82,1.92,1.5,3-2.67-.02-4.43-.44-5,2.5s-.55,34.08.46,35.54c.93,1.34,5.2.83,4.54,3.96h-17c-.6-3.94.59-3.03,4.01-2.99-1.07-5.83,1.58-35.25-.45-38.08-1.15-1.61-4.73.53-3.56-3.92,4.16.75,11.92-1.03,15.5,0Z"/>
    <path d="M920,353.2c3.05.61,13.82-1.55,14.86,1.64,1.26,3.85.62,19.17-2.32,22.4-9.7,10.66-33.98-10.09-44.22-13.9-1.31-.84-2.32,2.17-2.32,2.36v14.5h-14v-21.5c7.76-15.92,35.33,8.43,45.96,12.07.62.87,2.04-.95,2.04-1.07v-16.5Z"/>
    <path d="M798.8,353.5c8.43-.68,33.23-1.3,40.12,2.29,5.47,2.85,6.03,14.18,3.32,19.15-4.2,8.38-40.88,6.13-49.65,5.18-9.13-1.22-12.37-6.45-11.47-15.3,1.12-11.16,8.36-10.56,17.68-11.31Z"/>
    <path class="cls-1" d="M801.74,358.44c4-.73,20.6-.84,23.64.88,3.38,1.92,3.64,11.33,2.13,13.89-2.13,3.61-29.47,4.43-31.32-1.7-1.62-5.39-.63-11.93,5.55-13.07Z"/>
    <path d="M161,464.2c-.07.33.13.87,0,.99-.76.68-8.22,3.34-8.99,4.02-.13.12.06.66,0,.99h42.5c1.59,0,7.86,3.31,9.06,4.93,6.38,8.62-9.2,11.44-14.55,13.56l12,13.5h-18.5c-1.17,0-12.09-16.45-13.5-19h14.5c1.52,0,5.73-2.31,4.04-5.04-1.59-2.56-20.41-2.78-22.55-1.48-3.38,2.06-9.6,25.51-10.99,25.51h-16l11.49-31.01-31.23,16.27-5.26,14.73h-18c.88-3.75,4.89-9.68,3.83-13.28s-15.54-13.99-17.83-18.72h19.5c.85,0,8.84,12.12,11.82,11.84,5.71-.53,25.28-15.34,32.18-17.84h16.5Z"/>
    <path d="M343,470.2l-12.14,31.86c-.85.55-15.28.33-16.85-.38-4.11-1.87-18.12-20.49-21.51-20.49-1.37,2.77-7.49,21.01-9.01,21.01h-15.5c2.23-3.82,10.7-30.94,12.14-31.86.96-.62,14.83-.26,16.82.41,4.73,1.6,19.13,20.03,21.53,19.45,2.61-2.24,7.14-20,9.01-20h15.5Z"/>
    <path d="M38,470.2c.6.44-6.91,14.02-4.49,14.01l29.99-14.01h14.5l-21.98,11.5,18.98,20.5h-19.5c-1,0-10.41-13.9-13.97-13.98-.73-.02-12.77,5.69-13.28,6.22-1.05,1.11-2.11,7.76-3.75,7.76H8c1.76-3.77,11.76-32,13.5-32h16.5Z"/>
    <path d="M224.76,470.46c6.35-.92,30.52-1.19,36.31.17,13.02,3.05,15.7,14.84,5.4,23.54-15.21,12.85-35.32,6.86-53.73,7.78-19.21-10.35-3.93-29.19,12.02-31.5Z"/>
    <path class="cls-1" d="M230.71,477.41c3.05-.68,16.45-.64,19.34.24,10.44,3.18,2.19,16.53-4.8,18.31-2.75.7-16.69.66-19.32-.2-7.81-2.54-4.1-16.36,4.77-18.35Z"/>
    <path d="M541.5,463.2c15.66,2.6,9.57,21.22-5.49,19.49,3.39,2.11,24.91,17.51,26.49,17.51h20.5c.2,0,.2,4,0,4h-41.5c-1.86,0-25.06-20.6-29.5-22.5,6.06-.51,24.32.5,22.84-9.77-1.3-8.99-29.42-6.66-31.36-2.74-.8,1.63-.91,19.26-.29,21.32,1.08,3.6,8.4,4.16,8.8,4.71.54.73-.9,2.99-1.5,2.99h-28.5c-1.31-5.38,5.79-1.58,7.56-6.94.86-2.6.9-19.8-.08-22.04-1.22-2.78-4.76-3.41-7.49-3.03v-3h59.51Z"/>
    <path d="M901,472.19c-5.16-1.03-8.64-4.05-14.01-5.48-6.65-1.77-15.11-3.14-21.84-1.86-2.62.49-9.65,2.52-7.71,6.35,3,5.94,39.11,3.81,46.26,12.29,8.34,9.89-19.71,14.08-25.2,14.15-8.26.11-17.51-3.11-25.07-2.51-2.57.2-4.69,1.84-4.95,1.83-.66-.01-9.44-8.59-9.46-9.26-.13-4.33,6.67,1.42,7.27,1.71,8.04,4.01,26.62,6.75,34.95,3.52,3.36-1.3,6.81-4.22,2.73-7.21-9.86-7.24-37.84-1.7-42.25-12.84s24.89-10.99,30.82-10.74c4.18.18,11.23,2.25,14.91,2.01,2.54-.17,4.56-3.14,5.92-2.9,1.07.19,8.19,10.41,7.62,10.92Z"/>
    <path d="M786,463.2c1.74,4.98-5.73,2.27-6.86,5.64-.51,1.5-.45,18.97.06,20.67,2.16,7.24,30.27,6.3,31.81-1.8.55-2.87.32-15.79-.45-18.59-1.31-4.76-8-.49-6.56-5.91h26c1.52,4.82-5.48,2.25-6.81,6.69-3.33,11.16,6.8,20.72-11.18,25.82-8.77,2.49-25.82,2.76-34.66.63-17.14-4.13-7.52-15.35-10.79-27.23-1.31-4.76-8-.49-6.56-5.91h26Z"/>
    <path d="M747,463.2c1.24,5.74-6.27.56-7.06,7.44-.32,2.78-.4,19.08.22,20.9.95,2.76,7.89,2.9,6.83,5.14-.91,1.4-1.96,1.4-3.44,1.56-3.14.35-19.67.48-21.88-.22-1.32-.42-1.94-1.45-1.67-2.82,3.03-.28,6.48-.67,7.56-3.95.83-2.5.94-17.68.41-20.53-1.04-5.61-7.44-2.92-7.97-7.53h27Z"/>
    <path d="M684.5,463.2c11.08,1.12,37.66,11.39,22.52,25.52-13.19,12.3-45.16,8.78-62.02,9.48-1.31-4.7,4.09-2.81,6.1-5.41,1.2-1.55,1.5-21.68.74-23.93-1.34-3.99-8.51-.58-6.84-5.66,12.67.94,27.04-1.26,39.5,0Z"/>
    <path class="cls-1" d="M666,466.2c13.18-3.68,35.5-.71,30.52,18.03-.99,3.72-7.33,9.97-11.02,9.97h-18c-.11,0-1.5-1.39-1.5-1.5v-26.5Z"/>
    <path d="M588.78,463.48c10.65-1.2,22.91-.44,32.9,3.54,21.65,8.62,13.81,23.4-4.9,28.46-13.58,3.67-38.12,3.41-49.26-6.3-16.18-14.12,8.92-24.31,21.25-25.7Z"/>
    <path class="cls-1" d="M594.76,465.46c8.29-1.13,21.69,2.67,23.18,12.3,3.63,23.57-42.52,23.33-38.86,0,1.07-6.81,9.39-11.44,15.69-12.29Z"/>
    <path d="M278.74,922.44c5.08-.92,21.48-.9,26.79-.26,15.5,1.86,14.73,28.93,1.92,30.97-5.23.83-22.51.73-27.97.08-13.97-1.66-14.56-28.29-.74-30.79Z"/>
    <path class="cls-1" d="M281.71,931.41c2.06-.59,20.61-.62,22.6-.02,5.12,1.54,4.61,12.57-1.83,13.78-2.85.53-17.99.41-20.53-.42-5.37-1.73-5.49-11.84-.23-13.35Z"/>
    <path d="M582.73,922.43c4.57-.93,21.85-.85,26.79-.25,15.98,1.92,14.5,28.97,1.92,30.97-5.23.83-22.51.73-27.97.08-14-1.66-14.42-28.01-.75-30.79Z"/>
    <path class="cls-1" d="M609.75,943.94c-1.89,1.78-19.86,1.77-23.03,1.05-6.77-1.55-5.96-12.66-.19-13.76,2.43-.47,19.76-.43,21.79.17,4.53,1.35,4.45,9.72,1.44,12.54Z"/>
    <path d="M70,873.2h-32c2.17-8.66,5.14-7.93,13-7.01.67-.62-4.02-15.69-4.93-17.56-.53-1.1-.92-2.81-2.55-2.43-2.58.61-9.81,27-12.01,27h-15.5c3.23-11.4,7.73-22.87,12.99-33.51,1.79-1.08,28.94-.88,30.6.42,3.18,2.47,8.96,27.69,10.41,33.09Z"/>
    <path d="M328,860.2v-21h14v28.5c0,.89-3.4,4.91-4.71,5.29-6.56,1.92-10.83-.09-15.34-4.27-4.23-3.93-8.74-11.2-12.91-14.84-1.13-.99-1.65-.74-3.04-.68v20h-14v-27.5c0-.8,2.94-5.16,4.24-5.76,12.75-5.96,20.74,12.64,28.76,18.77,1.01.77,1.26,1.93,3.01,1.49Z"/>
    <path d="M80.5,873.2c-3.64-.92-6.21-5.76-6.55-9.45-1.22-13.47-1.99-25.15,14.66-25.44,1.97-.03,3.81.95,5.85.94,8.51-.04,17.04-.06,25.54-.05v9.01h-27.51c-2.18,0-2.23,14.8-.26,16.76,3.91,3.91,20.41-1.49,26.12.38,2.66.87,1.43,5.56,1.64,7.86h-39.5Z"/>
    <path d="M196,839.2c1.61,4.27,7.25,18.15,13.05,11.55,1.28-1.45,5.55-11.55,7.45-11.55h15.5l-19,34h-17l7-12.99c-12.47,1.04-12.44.04-18.17-9.34-2.07-3.39-4.39-7.94-5.83-11.67h17Z"/>
    <path d="M175,839.2v9h-17v25h-16v-25h-17c-1.26-1.36-.46-9,0-9h50Z"/>
    <path d="M247.81,838.42c6.57-.33,17.91-.16,24.68-.01s13.65,2.91,14.53,10.27c.97,8.16,1.86,22.86-8.59,24.46-6.42.98-29.37,1.11-35.71-.16-4.18-.84-7.24-3.92-7.75-8.25-1.29-11.14-1.45-25.58,12.83-26.3Z"/>
    <path class="cls-1" d="M254.71,847.41c2.72-.78,14.28-.79,15.8,1.78,1.22,2.06,1.01,13.1-.96,15.07-2.98,2.98-15.18,2.77-17.65-.46-2.09-2.74-2-15,2.8-16.38Z"/>
    <path d="M624.89,839.31c.7.48,1.56,7.31,2.11,8.88-6.24,1.7-6.14-2.73-10.76-4.73-5.16-2.23-18.86-3.54-23.82-1.35-1.08.48-2.77.99-2.41,2.57,1.13,4.9,40,7.26,41.02,17.05.54,5.16-6,7.81-10.01,8.98-16.3,4.74-32.92,1.26-49.53,1.49-2.67.52-4.91-9.61-4.48-10.01,5.68-1.46,6.91,3.65,10.64,5.84,4.57,2.69,28.14,4.23,29.34-1.38.44-2.06-4.29-3.67-5.71-4.24-6.47-2.58-34.2-5.74-33.32-14.68,1.01-10.32,32.4-8.75,39.59-8.59,2.66.06,5.12,1.1,7.96,1.13,2.35.03,8.19-1.81,9.39-.98Z"/>
    <path d="M894,839.2c-1.14,2.65,2.35,12.16-.51,12.99-2.21.65-6.21-5.99-10.5-7.49-10.44-3.64-27.58-3.48-27.91,11.1-.37,16.28,25.16,14.37,34.66,8.64,2.58-1.56,3.88-4.78,7.25-4.24.7.68-3.04,11.32-4.63,11.86-13.26.88-49.17,4.33-55.44-11.29-5.05-12.58,11-19.55,20.82-21.32,12.62-2.27,23.88,1.84,36.24-.25Z"/>
    <path d="M656,843.2c-4.19.09-11.05-.57-14.58,1.95-1.57,1.12-.72,4.09-4.41,3.05v-10.01s56.99,0,56.99,0c-.69,4.24,2.43,11.71-3.49,10.05-1.03-.29.38-2.33-1.72-3.36-4.09-2.01-10.3-1.67-14.78-1.68v24c0,.45,8.67.71,8.99,1.03.28.29-.15,2.99.01,3.97h-36c-.78-5.75.95-3.36,5.06-4.44.96-.25,3.94-1.27,3.94-2.06v-22.5Z"/>
    <path d="M770,839.2c.14.14.12,3.83-.01,3.97-.34.35-9.17-.19-7.98,2.52.8,1.83,12.11,15.64,13.35,15.44,2.33-.39,9.77-13.46,12.63-15.45.25-3.59-5.54-2.05-5.99-2.48-.14-.14-.2-3.99,0-3.99h19c.88,5.6-4.93,2.99-7.95,5.55l-21.05,26.95-7.79.28-20.73-26.76c-3.37-2.79-10.16.64-8.48-6.02,4.4.96,33.79-1.26,35,0Z"/>
    <path d="M835,839.2c2.11,6.28-5.71,3.2-6.86,6.64-.57,1.69-.48,15.4-.19,17.92.81,7.06,8.83,1.25,7.06,8.44h-31c-1.95-6.57,5.56-2.85,6.06-6.45.32-2.34.43-19.36,0-20.94-.5-1.82-8.4.25-6.06-5.61h31Z"/>
    <path d="M687,872.2c-.85-6.23,1.34-3.2,5.48-4.02s19.07-21.74,23.03-25.96c1.63-1.53,4.31-1.33,6.28-.79,5.92,6.59,15.61,22.75,23.19,26.32,2.93,1.38,4.83-1.47,4.02,4.45h-31c-.2,0-.14-3.85,0-3.99.39-.38,5.11.81,6-1.53.37-1.04-2.28-3.48-2.5-3.48h-16.5c-.27,0-2.2,4.81-2,5,3.75-.52,3.13.61,3,4h-19Z"/>
    <path class="cls-1" d="M720,859.19l-11.99-.48c5.51-8.31,6.98-8.04,11.99.48Z"/>
    <path d="M203.71,335.41c19.34-4.32,26.43,12.84,24.2,29.2-.95,6.97-7.57,15.15-14.65,16.34-27.92,4.69-28.05-41.41-9.55-45.55Z"/>
    <path class="cls-1" d="M206.71,338.41c14.11-4.23,13.4,21.52,11.84,29.83-1.19,6.35-5.79,12.5-12.83,8.74-8.31-4.44-7.69-35.96.99-38.57Z"/>
    <path d="M631,36.2h-27c2.06-6.01,5.81-4.82,11-4.01.52-.47-3.71-12.14-6.48-12.02-2.11-.33-1.37.85-2.01,2-1.33,2.39-5.98,12.79-7.49,13.55-3.07,1.55-10.33-.12-14.02.47,3.43-4.82,6.23-15.51,10.11-19.38,1.38-1.38,1.24-1.42,3.33-1.67,3.05-.36,21.74-.31,23.56.56,2.51,1.2,7.86,16.88,9,20.5Z"/>
    <path d="M818,19.7c.14-.5,3.86-4.04,4.7-4.29,11.3-3.36,17.27,9.72,26.29,12.79v-13s12.01,0,12.01,0v16.5c0,5.11-9.71,5.11-13.29,4.29s-15.85-13.41-16.7-12.79c-1.47,4.21-.99,8.61-1.01,13h-12.01c.79-4.43-1.08-12.69,0-16.51Z"/>
    <path d="M674,15.2v5h-22.5c-3.73,0-2.87,10.33-2.39,10.89.4.47,6.12,1.18,7.38,1.18,5.72.01,18.86-4.89,17.51,3.92h-34.5c-7.65,0-7.65-21,0-21h34.5Z"/>
    <path d="M737,36.2l6-7.99c-8.42.8-9.7.13-14.97-5.54-.68-.73-5.73-6.86-5.02-7.47,3.93.52,9.67-.86,13.29.2,2.82.83,4.02,5.56,6.13,6.86,6.71,4.13,7.35-4.76,11.59-6.55,3.9-1.64,9.87-.3,13.97-.03-2.41,2.28-15.18,20.51-16.49,20.51h-14.5Z"/>
    <path d="M720,15.2v5.01c-2.43.33-15-1.07-15,1.49v14.5c-2.92-.54-11.07.96-13.06-.44-2.96-2.08,1.95-11.27-.38-14.63-1.41-2.04-11.67-.43-14.57-.93v-5.01h43.01Z"/>
    <path d="M771.27,33.93c-3.29-4.09-1.99-16.23,4.68-18.29,3.38-1.04,27.38-1.04,31.5-.39,7.49,1.19,8.12,11.4,6.36,17.25-2.02,6.74-21.47,1.96-27.2,4.6-3.84-1.61-12.71.09-15.34-3.17Z"/>
    <path class="cls-1" d="M786.7,20.4c2.19-.64,11.22-.62,12.9.7,1.8,1.42,2.08,7.39.94,9.13-1.72,2.62-13.13,2.54-15.55.47-1.99-1.7-1.77-9.29,1.71-10.31Z"/>
    <path d="M756,46.2c.2.18-1.73,5-2,5h-16.5c-4,0,3.8,5.78,3.55,8.45-.15,1.64-3.45,4.55-4.55,4.55h-39.5c1.23-1.87,2.17-4.56,4.49-5.01l28.5-1c2.62-2.1-7.04-3.17-7.05-6.48,0-1.9,5.52-5.51,6.56-5.51h26.5Z"/>
    <path d="M842.5,46.2c4.18,1.18,3.06,9.01-3.06,9.94-3.39.51-13.78-.93-6.77,3.89l18.33,10.16c-13.58,3.82-25.33-8.44-37.99-12-.16-.22,1.73-4.99,2-4.99h18v-3h-15c.26-.85,2.01-4,2.5-4,4.78,0,18.61-.96,22,0Z"/>
    <path d="M913,46.2c.26.19-2.76,5-3.5,5h-15c-.33,0-1.89,1.69-1.5,2.49,2.91,1.93,6.71,4.65,3.69,8.21-.17.2-2.99,2.3-3.19,2.3h-30.5c-.21-1.19,2-4.84,2.71-5.02,2.79-.7,19.97,0,21.29-.99,2.07-1.56-4.59-3.06-5.54-3.95-3.74-3.52,2.32-8.05,5.05-8.05h26.5Z"/>
    <path d="M756,50.2c.82-1.89,1.27-3.58,3.49-4.01,2.65-.51,18.31-.48,20.98.04,8.65,1.66.44,11.39-6.2,12.75-4.2.86-10.03-.68-13.59.41-2.32.71-2.47,4.01-4.35,4.65-2.84.97-8.11-.34-11.34.15.98-1.54,7.81-10.99,8.5-10.99h18c1.48,0,1.48-3,0-3h-15.5Z"/>
    <path d="M880,46.2c-.28,8.14-8.44,3.35-11.99,5.51-2.68,1.63-6.97,12.27-9.48,12.57-3.22.38-7.19-.42-10.53-.09l8.99-12.5-8.99-.5c-.74-.67,1.96-4.99,2.5-4.99h29.5Z"/>
    <path d="M779.5,64.2c-3.21-.9.12-4.54,1.1-5.9,1.2-1.67,8-10.67,8.83-11.17,2.28-1.38,19.54-1.39,23.12-.98,4.52.53,4.01,1.89,1.97,5.07-1.02,1.6-10.17,12.97-11.02,12.97-5.17,0-20.34,1.03-24,0Z"/>
    <path class="cls-1" d="M799.8,59.99c-.75.44-9.77,1.2-8.79-1.28,1.69-4.25,6.19-8.98,11.33-7.38,3.32,1.03-2,8.34-2.54,8.65Z"/>
    <path d="M442,763.2c3.17,15.92-18.58,18.38-23.49,31.02-7.26,18.69,12.75,31.46,29,32.97,18.86,1.75,47.65-6.89,42.05-31.05-2.53-10.92-30.82-22.66-24.13-32,.71-1,18.98-3.73,22.35-4.65,108.45-29.58,122.94-174.69,26.52-231.08-6.9-4.03-19.16-6.11-19.3-15.2,9.11-.96,17.62,1.74,26.21,4.29,41.53,12.31,95.32,43.57,121.63,78.37,58.62,77.57-21.14,134.2-90.06,155.6-15.64,4.85-31.55,6.94-46.79,11.21-8.43,2.36-17.1,7.84-8.48,16.53,6.55,6.61,19.83,13.16,25.33,21.67,12,18.56-18.12,25.88-29.13,32.52-17.16,10.34-20.29,22.82-44.23,20.84-16.5-1.37-21.32-11.6-33.55-19.45-8.84-5.68-25.17-10.24-30.91-18.09-14.39-19.65,30.75-34,27.58-45.53-2.36-8.59-20.12-9.81-27.4-11.64-44.52-11.21-93.88-27.12-123.16-64.84-63.35-81.59,64.78-165.38,133.98-179.98,3.18-.67,19.79-4.52,16.5,2.5-1.65,3.53-15.66,8.38-20.17,10.83-108.28,60.55-73.98,224.17,49.68,235.17Z"/>
    <path d="M628.86,649.03c.16-.11,0-1.62.8-1.83,4.52-1.19,12.69.97,17.06.75,1.55-.08,2.57-1.83,3.65-1.66,3.83.58,1.43,4.96,1.57,6.31.07.68,2.05.62,2.12,1.15.19,1.45-6.35,20.96-7.66,23.36-13.48,24.6-40.51,42.66-65.54,53.46-3.44,1.48-13.16,6.35-16.13,5.51-1.39-.39-2.56-2.71-3.21-2.71-.54,0-6.24,4.79-10.03,1.94s-.39-2.75.49-3.83c13.31-16.38,23.73-30.76,30.33-51.46,1.43-4.48,2.06-13.5,3.91-17.09.93-1.8,3.22-1.98,3.7-3.37,1.77-5.15-10-12.27,7.64-13.38,4.3-.27,11.24,1.64,15.1,1.7,2.85.04,9.84-1.79,11.74-1.43,1.63.31,2.74,3.75,4.47,2.6Z"/>
    <path d="M324,680.2l-.98,2.05c-4.74-1-8.76.54-12.07,4.62-10.96-1.23-14.39,2-10.28,9.69,1.23,9.02-6.84,8.14-10.08,1.22l-3.65-7.17c3.57,10.94,2.26,15.14-3.94,12.59-2.25-1.99-4.92-3.84-7-6l.38-4.11c4.22-3.44.99-10.82-4.68-11.4-12.2-10.11-12.09-14.76-.78-25.9-3.18-3.46-4.15-6.32-2.93-8.58,12.34,0,26.04-1.19,38.49,0,9.32.9,13.88.99,8.71,11.69-1.69,3.5-5.15,4.27-4.03,9.57,1.59,7.52,9.6,7.37,12.83,11.73Z"/>
    <path d="M608.34,574.87c1.39,1.18,6.15,2.98,7.66,4.84,1.42,1.75.78,4.17,1.06,4.44.45.44,2.8-.41,3.75.21.12.08,1.21,2.61,1.13,2.73-.36.55-11.3,3.99-12.52,4.11-4.56.44-17.14.87-21.91.79-12.56-.21-6.52-4.5-7.94-6.79-.49-.79-2.51-1.21-3.45-2.62-4.79-7.22-8.02-17.74-14.11-24.88l-10.99-13.5c15.71-.47,33.31,11.61,45.91,20.58,4.84,3.44,7.55,6.8,11.42,10.08Z"/>
    <path d="M270,605.2c-.17.32,0,1.74-.53,2.93-.88,1.96-4.39,3.74-3.46,7.07,6.16-3.64,11.78,2.64,16.67,2.76,2.06.05,4.65-2.54,7.32-1.76.06-4.3-5.04-2.83-8-3,1.64-2.67,7.92-5.16,10.8-5.78,1.95-.41,3.51.74,5.24.36,3.23-.71,18.1-5.53,19.92-3.54.39.42-.26,3.04.04,4.28.22.9,2.07.29,2.07,2.11,0,3-2.06,7-2.11,10.13-.07,4.57,4.22,12.69-2.42,13.5-3.48.42-23.22.63-25.85-.02-.52-.13-6.65-7.87-7.19-7.87-.38,0-1.37,1.43-2.25,1.59-2.41.44-14.84-.37-17.7-.81-6.99-1.07-3.45-5.37-1.11-9.98,2.07-4.08,5.13-9.05,8.55-11.95Z"/>
    <path d="M324,680.2c2.89,3.9,2.21,11.16,2,16,.74,1.26.74,2.26,0,3l-1.37.28c-3.11-7.24-4.26-8.53-3.47-3.86,2.65,7.52,2.7,12.94-6.03,7.52,1.01,5.55-14.72,8.48-17.44,7.11-5.34-6.15-5.96-4.63-1.05.75l-.64,2.2c-5.29-1.89-9.07-6.52-13-10,1.8.15,3.89-.01,3.96-2.42.1-3.41-3.2-12.21-2.96-16.58,3.09-3.14,7.99,18.18,13.48,16.99,3.62-.78-.72-9.15-.48-11.48.66-6.53,9.62-3.64,13.3-4.72,2.12-.63,3.3-3.97,5.41-4.59,2.49-.73,5.68.04,8.3-.21Z"/>
    <path d="M326,699.2c.75,2.4,0,4.98-2.25,7.73-1.21,1.79,1.5,15.89,2.1,16.5,9.62-5.49,14.87,4.05,7.08,8.43-.94.53-1.61.81-2.93.33-9.24-3.55-27.38-12.24-34-19-1.95-1.99-7.98-7.95-2.37-8.93,2.03-.36,4.07,4.29,6.08,4.8s3.32-1.31,5.02-1.65c6.68-1.36,8.25,1.09,8.78-8.23l7.48,5c1.06-1.17-4.72-11.78-.48-13.99,4.6.93,3.64,5.99,5.49,8.99Z"/>
    <path d="M268,647.2c.59,2.01,5.03,7.27,5.04,8.5.02,2.55-9.53,8.1-8.76,14.88.14,1.22,5.97,7.7,7.19,8.66,1.91,1.51,5.8,1.51,7.01,3.99.21.43,2.59,7.99,2.59,8.43,0,.77-2,.72-2.56,1.55-1.13,1.69.78,4.7-2.51,4.01-8.26-8.58-21.64-29.7-22.89-41.6-1.44-13.77,4.11-8.39,14.89-8.4Z"/>
    <path d="M359.99,538.2c2.03,1.99-7.96,10.13-9.51,11.98-6.89,8.27-12.38,17.86-17.98,27.01-1.54-.72-7.21-8.07-7.37-9.67-.21-2.12,3.3-3.2,3.64-4.95.39-1.99-2.31-5.41-1.33-7.38,1.13-2.27,29.81-19.67,32.55-17Z"/>
    <path d="M326,696.2c4.39,4.53-3.74,13.55-1.79,16.81.21.35,5.3,4.31,6.25,5.2l11.54-4.01c-.48,11.92.02,6.14,4.3,7.14,1.24.29,3.73,2.98,3.74,4.36,0,.92-9.95,10.21-10.68,10.35-.5.1-7.76-3.24-9.35-3.85,13.42-15.09-5.28-5.26-5.99-6,.13-4.54-3.1-16.6-1.5-19.99,1.37-2.9,2.88-1.04,3.49-7.01.1-.98-.04-2.01,0-3Z"/>
    <path d="M296.28,591.87c-.24-.11-.15-1.27-1.02-1.61-2.02-.79-5.86.68-6.29-3.61-.39-3.88,2.55-2.73,3.94-4.05,1.67-1.59,3.61-5.71,5.82-6.27,2.08-.52,3.85.95,5.73.84,2.52-.14,4.35-3.41,7.12-1.08.49.41,3.2,10.76,3.23,11.79.15,5.51-15.61,5.3-18.53,3.98Z"/>
    <path d="M270,605.2c4.24-8.11,11.07-14.53,17.5-21,2.15,2.7-7.1,7.71-5.5,8.99,5.74.94,12.98.26,18.43,1.07,2.82.41,5.9,2.75,9.16,2.85,1.77.05,12.21-2.1,3.96,2.15-9.06,4.66-11.66-.8-19.11-1.09-3.68-.14-7.18,1.74-10.92,1.02-2.42-.46-3.46-3.31-5.01-2.98-3.37.71,3.39,11.62-2.53,8.52-3.28-1.72-.77-3.96-5.99.48Z"/>
    <path d="M599,609.2c.1-6.22-13.44-1.47-14-2.01-.31-.3.86-1.88.44-3.02-.26-.7-1.73-1.44-2.19-2.73-.83-2.37-.87-5.01-2.26-7.24,13.66.08,27.05-1.76,40.49,2.01l1.02-3.04c9.5-.61,11.8,7.98,17.48,13.54l-4.65,4.56-9.35-1.08,1.01-1.98c-3.8,1.29-8.41-.14-11.44.05-5.28.33-12.52,4.98-19.06,2.93l-11.51-1.99h14Z"/>
    <path d="M631.9,599.31c2.4,3.9-4.96,4.38-3.89-1.1.32-.35,3.79.93,3.89,1.1Z"/>
    <path class="cls-1" d="M345,598.2c1.35-3.15,2.63-3.37,3.82-.65-1.37,31.74,20.54,61.02,53.1,64.34,26.34,2.69,41.43-12.57,57.01-31.31,38.52-41.41,107.57-10.17,103.08,45.62-56.27,143.04-264.55,69.39-217-78Z"/>
    <path d="M480.88,650.32c2.35,1.49,1.68,22.22,3.13,23.88s4.48-4.97,4.85-5.65c2.81-5.17,4.62-10.71,6.18-16.35l19.97,5.01c1.65,2.29-13.74,19.61-16.5,21.99-1.21,1.05-6.93,3-5.5,4.98.28.39,7.34,2.6,9.03,3.48,11.69,6.11,19.61,16.81,24.97,28.52-3.67.16-19.01,5.84-21,4.58-5.45-9.78-10.03-20.98-17.98-29.08s-7.13.78-10.85,7.19c-3.68,6.33-8.43,13.83-14.16,18.33-.99-5.58,2.85-15.62,2.03-20.49-.21-1.27-3.87.6-3.05-2,.33-1.06,2.56-.4,3.05-3,.25-1.35-.74-10.23-1.12-11.93-.9-4.14-8.77-19-8.69-20.09.08-.95,1.65-1.8,2.5-2.25,2.97-1.58,14.79-5.84,18.25-6.74,1.32-.34,3.81-1.06,4.89-.37Z"/>
    <path d="M562,676.2c-2.6-7.68-1.84-15.15-4.52-22.98-12.01-35.04-54.02-51.04-85.78-30.83-16.06,10.22-23.43,28.91-42.7,37.3-34.63,15.09-74.93-9.82-80.9-46.1-.68-4.14-.4-9.28-1.15-13.87-.35-2.15,1.07-3.49-1.96-1.53,57.56-139.57,261.78-67.74,217,78Z"/>
    <path class="cls-1" d="M426.81,547.4c.47.29.46,2.21,1.8,2.66,3.72,1.24,12.19,1.18,17.36,2.67,9.55,2.76,21.58,8.9,25.31,18.69,8.42,22.12-10.68,31.91-28.02,38.55-5.59,2.14-20.77,5.25-24.25,7.75-4.36,4.03-11.3,19.8-18,23.49,2.05-18.87,5.75-38.52.71-57.22-2.25-8.34-6.97-16.58-9.72-24.77.74-.81,14.38-4.59,16.93-6.58,1-.78,1.34-1.04,1.06-2.43l-1.99-.99c3.36,1.79,17.58-2.58,18.81-1.81Z"/>
    <path d="M435.65,599.85c-1.14,1.21-9.54,8.46-10.64,7.35,5.71-14.91,5.8-30.26,4-45.99.98-1.11,10.1,8.27,10.99,9.5,7.5,10.4,3.64,20.7-4.35,29.14Z"/>
    <path d="M651.79,285.49c9.18-.62,80.2-3.11,79.2,7.09-.15,3.38-10.4,30.01-12.51,34.6-1.24,2.7-3.38,7.57-5.94,9.06-3.14,1.83-26.16,4.67-31.06,4.94-8.94.5-26.96-1.31-35.9-3.08-7.07-1.4-7.84-3.23-10.76-9.24-2.02-4.17-14.58-37.02-13.42-38.71,9.6-3.36,20.28-4.1,30.39-4.67Z"/>
    <path class="cls-1" d="M674,309.2c.79.79-.06,6.5-1.41,8.09-3.59,4.25-29.59,3.93-34.31,1.12-2.56-1.52-2.94-2.82-3.3-5.7-2.16-17.67,9.2-12.09,21.41-14.42,7.04,2.21,18.31-2.07,17.61,8.9-5.44,1.76-7.34-3.26-11.56-3.94-3.02-.48-16.69-.46-18.78.86-2.45,1.55-2.2,9,.35,10.56,3.58,2.19,20.78,3.21,22.98-2.47-4.03-.22-9.65,1.27-12-3.01,2.68.5,18.33-.68,19,0Z"/>
    <path class="cls-1" d="M717,313.21c-.45,3.66-6.39,3.7-6.87,4.18-.52.51.41,2.66-.68,2.88-.88.18-6.16.04-6.39-.19-.42-.42.53-2.73-.61-2.95-6.18-1.23-16.5,1.25-22.95.07-7.54-1.39,1.84-8.53,3.97-10.02,7.6-5.3,15.96-10.08,25.59-7.54,3.05,6.31-3.4,15.41,7.94,13.57Z"/>
    <path d="M687,313.2c3.57-4.74,9.79-8.37,15.49-10.01l.51,10.01h-16Z"/>
    <path d="M100,9.2v7h-27v3h27v7h-27v3h27v7h-34.5c-5.02,0-5.02-27,0-27h34.5Z"/>
    <path d="M328,30.2V13.2h11v21.5c0,.72-2.06,4.55-2.98,5.01-8.72,4.42-20.69-14.05-28.02-17.51v18h-10V15.7c0-2.71,6.01-4.03,8.96-2.95,5.49,2.02,14.96,14.4,21.04,17.45Z"/>
    <path d="M29.5,7.2c17.55,2.05,18,18.71-.5,18.01l10,9.98c-8.11,2.01-17.18-4.44-21.55-10.93-6.63-9.84,10.05-4.24,13.58-6.52,1.96-1.27.16-3.53-.53-3.53H6.5c-.48,0-5.8-5.79-6.5-7,9.37.79,20.35-1.07,29.5,0Z"/>
    <polygon points="220 10.2 220 17.2 204 17.2 204 38.2 194 38.2 194 17.2 178 17.2 178 10.2 220 10.2"/>
    <path d="M165,37.19c-12.74,2.78-14.9-5.67-22.5-12.97-5.73,7.19-10.02,14.27-20.5,11.97l9.89-11.63-10.89-15.35c2.89.3,6.56-.6,9.29.2s6.43,8.78,9.72,10.28c3.11,1.42,6.82-.37,9.96,1.04,2.68,1.2,11.48,13.93,15.02,16.47Z"/>
    <path d="M168,.21l-16.02,14.47-7.98.51c6.88-6.04,13.85-16.83,24-14.98Z"/>
    <path d="M240.71,11.41c2.43-.71,32.62-.51,34.29.29,5.54,2.65,5.56,24.08-.24,26.76-2.42,1.12-32.55,1.32-34.77.25-5.61-2.72-6.09-25.32.72-27.3Z"/>
    <path class="cls-1" d="M267,18.2c1.1.93,1.84,11.84-.99,13.51-1.4.83-16.88.88-18.08.05-1.7-1.19-1.48-13.56.56-13.56,2.67,0,17.79-.6,18.5,0Z"/>
    <path d="M317.9,205.3c.67.78-.26,7.12.09,8.9-.72.79-13.17-6.86-20.5-1.01-8.75,6.99,8.03,12.39,12.2,14.82,15.07,8.79,13.15,26.23-4.43,28.95-2.81.43-18.99.45-20.21-.81-.55-.56.27-8.18-.04-9.95,6.58,2.9,13.1,3.8,19.98,1.47,1.56-.53,3.93-.98,4.12-2.95.9-9.5-8.93-9.68-15.04-13.08-14.88-8.29-11.91-26.08,4.52-28.35,2.94-.41,17.84.3,19.31,2.01Z"/>
    <path d="M392,213.2c3.23.47,9.14-1.14,11.51.99l16.49,29.01v-30h8v42l-10.84-.16-17.16-29.84v30h-8v-42Z"/>
    <path d="M550,213.2c3.23.47,9.14-1.14,11.51.99l16.49,29.01v-30h8v42l-10.84-.16-17.16-30.84v31h-8v-42Z"/>
    <path d="M629,253.7c-1.32,4.12-19.96,3.16-24.04,2.04-24.07-6.61-20.47-42.48,8.55-43.34,1.73-.05,13.9,1.22,14.35,1.93.64,1.02.39,5.55-.83,6.42-9.12-1.09-25.33-2.8-27.8,9.16-3.03,14.7,7.2,21.64,20.78,20.28-.32-1.9.42-11.58,0-12.01-.39-.39-8.32.29-10.01.01v-6.01h19.01c-1.05,5.35,1.42,17.07,0,21.5Z"/>
    <path d="M470,255.2c-18.65,5.56-42.61-1.34-38.55-25.06,2.76-16.11,19.44-18.22,33.06-16.94,6.26.59,4.39,2.42,4.48,8-7.76-1.87-22.5-2.8-26.77,5.73-6.92,13.82,5.57,25.98,19.78,23.28-.32-1.9.42-11.58,0-12.01-.39-.39-8.32.29-10.01.01v-6.01h18.01v23Z"/>
    <path d="M491.99,227.2c1.04-.75,8.58-19.54,11.52-21.99,2.09-1.74,6.91-1.28,9.48-.52l-27.15,49.85c-2.06,4.14-6.98,2.37-10.84,2.65-.97-.72,11.37-17.82,11.01-21.43-.33-3.37-19.5-30.23-18-31.55,2.51.35,6.94-.8,9.01.48s10.07,18.26,12.52,21.48c.36.93,1.87,1.46,2.45,1.04Z"/>
    <path d="M347.95,214.25c.52.53-.24,6.4.04,7.95-4.11-1.96-18.53-4.49-19.04,1.56-.68,8.1,21.16,6.98,20.11,21.93-.52,7.34-7.13,10.63-13.67,11.4-2.14.25-13.44-.01-14.34-.94-.52-.53.24-6.39-.05-7.95,4.87,1.81,18.66,3.94,19.09-3.5.37-6.28-7.4-6.12-11.78-8.33-12.21-6.17-10.72-20.73,2.42-22.94,2.49-.42,16.1-.32,17.21.81Z"/>
    <path d="M520.73,212.44c29.68-4.95,35.95,39.85,8.53,44.52-30.89,5.26-35.78-39.97-8.53-44.52Z"/>
    <path class="cls-1" d="M533.66,222.54c6.18,6.47,4.48,25.18-5.37,27.45-21.31,4.92-21.85-35.53,0-30.57,1.15.26,4.55,2.27,5.37,3.13Z"/>
    <path d="M374.84,213.37c1.89,1.17,12.8,36.84,15.16,41.83-2.33-.27-6.02.72-8-.48-2.19-1.32-2.4-7.61-4.62-8.38-1.77-.61-16.84-.35-17.47.49-1.15,1.52-2.68,7.97-3.01,8.26-.8.7-7.09-.25-8.88.11l15.47-41.02c1.55-1.34,10.25-1.49,11.36-.8Z"/>
    <polygon class="cls-1" points="375 239.19 363 239.19 369.5 222.2 375 239.19"/>
    <path d="M437.99,37.2c.46,2.08-1.09,2.27-2.27,3.22-15.57,12.43-29.03,18.8-39.24,37.76-13.92,25.86-4.64,52.55,22.54,63.5,5.89,2.37,29.14,6.29,31.05,8.94,5.25,7.26-9.83,9.95-10.14,18.1-.57,14.67,27.13,16.77,32.31,4.22s-15.3-14.04-9.31-22.33c1.95-2.69,24.57-6.42,30.33-8.66,31.66-12.31,37.79-43.5,18.96-70.48-10.6-15.2-21.4-20.25-34.94-31.06-1.18-.94-2.74-1.13-2.27-3.22,2.5-2.12,21.21,4.39,24.53,6.96,2.71.68.62-2.79,1.98-3.02,7.4-1.25,25.08,8.44,31.99,12.04l.5-3c24.99,6.72,59.04,35.28,44.53,64.05-16.42,32.56-68.41,35.8-99.56,44.44-1.59,1.27-.65,1.01.02,2.02,1.69,2.57,8.11,6.83,8.82,9.21,2.61,8.81-7.81,10.08-13.13,13.47-7.61,4.84-9.3,10.74-20.17,9.83-7.01-.59-7.58-3.89-12.18-6.84-3.05-1.95-15.93-8.66-16.66-10.4-3.42-8.12,4.91-10.05,8.34-15.27.66-1.01,1.6-.74.02-2.02-30.83-8.4-87.1-12.68-100.89-47.11-11.13-27.79,21.89-55.06,45.87-61.37l.5,3c6.91-3.61,24.59-13.29,31.99-12.04,1.36.23-.73,3.7,1.98,3.02,3.33-2.57,22.04-9.08,24.53-6.96Z"/>
    <path class="cls-1" d="M519,139.19c48.54-29.29,34.77-61.92-6-88.98,23.66,8.82,50.93,35.78,38.5,62.99-5.24,11.47-21.05,21.41-32.5,25.99Z"/>
    <path class="cls-1" d="M386,135.2c-48.32-23.8-26.7-68.79,14-84.99-3.96,3.97-9.13,6.49-13.47,10.02-29.24,23.74-33.49,52.13.47,73.97,1.33,1.41.77,1.92-1,1Z"/>
    <path class="cls-1" d="M364,63.21c-16.16,16.41-29.47,33.76-13.41,55.9,4.93,6.8,11.82,11.07,18.41,16.08-31.79-13.67-40.98-42.04-13.01-66.5,2.1-1.83,5.36-4.68,8.01-5.48Z"/>
    <path class="cls-1" d="M545.01,134.19l8.01-5.48c2.86-3.3,6.79-6.16,9.4-9.6,15.94-20.95,2.99-40.29-13.41-55.42-.16-.74,1.05-.68,1.48-.49,1.97.9,12.21,10.77,14.03,12.98,19.31,21.81,5.69,49.44-19.51,58Z"/>
    <path d="M387,134.2l9.99,5.99c-4.22.03-7.59-3.09-10.99-4.99l1-1Z"/>
  </g>
</svg>